<?xml version="1.0" standalone="no"?><!DOCTYPE svg PUBLIC "-//W3C//DTD SVG 1.1//EN" "http://www.w3.org/Graphics/SVG/1.1/DTD/svg11.dtd"><svg t="1623675882172" class="icon" viewBox="0 0 1024 1024" version="1.1" xmlns="http://www.w3.org/2000/svg" p-id="9483" xmlns:xlink="http://www.w3.org/1999/xlink" width="280" height="280"><defs><style type="text/css"></style></defs><path d="M191 864c0 17.7-14.3 32-32 32l0 0c-17.7 0-32-14.3-32-32L127 160c0-17.7 14.3-32 32-32l0 0c17.7 0 32 14.3 32 32L191 864z" p-id="9484" fill="#873bf4"></path><path d="M159 896c-17.7 0-32-14.3-32-32l0 0c0-17.7 14.3-32 32-32l712 0c17.7 0 32 14.3 32 32l0 0c0 17.7-14.3 32-32 32L159 896z" p-id="9485" fill="#873bf4"></path><path d="M830.6 338.2 830.6 338.2c0.9-9.2-2.1-18.6-9.1-25.7-12.4-12.4-32.4-12.4-44.8 0L586 503.3 480.8 398.1c-6.2-6.2-14.4-9.3-22.5-9.3-8.1 0-16.3 3.1-22.5 9.3L262.4 571.5c-6 6-9.1 13.8-9.3 21.6 0 0.1 0 0.1 0 0.2l0 111.8c0 35.3 28.7 64 64 64l449.7 0c33.8 0 61.4-26.1 63.8-59.3l0 0 0-0.2c0.1-1.5 0.2-3 0.2-4.5L830.8 593.3c0-0.3-0.1-0.7-0.2-1L830.6 338.2z" p-id="9486" fill="#873bf4"></path></svg>