<?xml version="1.0" standalone="no"?><!DOCTYPE svg PUBLIC "-//W3C//DTD SVG 1.1//EN" "http://www.w3.org/Graphics/SVG/1.1/DTD/svg11.dtd"><svg t="1623671616973" class="icon" viewBox="0 0 1024 1024" version="1.1" xmlns="http://www.w3.org/2000/svg" p-id="7897" xmlns:xlink="http://www.w3.org/1999/xlink" width="280" height="280"><defs><style type="text/css"></style></defs><path d="M191 864c0 17.7-14.3 32-32 32l0 0c-17.7 0-32-14.3-32-32L127 160c0-17.7 14.3-32 32-32l0 0c17.7 0 32 14.3 32 32L191 864z" p-id="7898" fill="#873bf4"></path><path d="M159 896c-17.7 0-32-14.3-32-32l0 0c0-17.7 14.3-32 32-32l712 0c17.7 0 32 14.3 32 32l0 0c0 17.7-14.3 32-32 32L159 896z" p-id="7899" fill="#873bf4"></path><path d="M745.6 765.9" p-id="7900" fill="#873bf4"></path><path d="M342.1 734.3c0 17.5-14.2 31.7-31.7 31.7l0 0c-17.5 0-31.7-14.2-31.7-31.7L278.7 489c0-17.5 14.2-31.7 31.7-31.7l0 0c17.5 0 31.7 14.2 31.7 31.7L342.1 734.3z" p-id="7901" fill="#873bf4"></path><path d="M493.8 734.3c0 17.5-14.2 31.7-31.7 31.7l0 0c-17.5 0-31.7-14.2-31.7-31.7L430.4 387c0-17.5 14.2-31.7 31.7-31.7l0 0c17.5 0 31.7 14.2 31.7 31.7L493.8 734.3z" p-id="7902" fill="#873bf4"></path><path d="M797.3 734.3c0 17.5-14.2 31.7-31.7 31.7l0 0c-17.5 0-31.7-14.2-31.7-31.7L733.9 234.5c0-17.5 14.2-31.7 31.7-31.7l0 0c17.5 0 31.7 14.2 31.7 31.7L797.3 734.3z" p-id="7903" fill="#873bf4"></path><path d="M645.5 734.3c0 17.5-14.2 31.7-31.7 31.7l0 0c-17.5 0-31.7-14.2-31.7-31.7l0-97.2c0-17.5 14.2-31.7 31.7-31.7l0 0c17.5 0 31.7 14.2 31.7 31.7L645.5 734.3z" p-id="7904" fill="#873bf4"></path></svg>