<?xml version="1.0" standalone="no"?><!DOCTYPE svg PUBLIC "-//W3C//DTD SVG 1.1//EN" "http://www.w3.org/Graphics/SVG/1.1/DTD/svg11.dtd"><svg t="1623675868316" class="icon" viewBox="0 0 1024 1024" version="1.1" xmlns="http://www.w3.org/2000/svg" p-id="9245" xmlns:xlink="http://www.w3.org/1999/xlink" width="280" height="280"><defs><style type="text/css"></style></defs><path d="M533.6 784.5c6.6 16.4-1.3 35-17.6 41.7l0 0c-16.4 6.6-35-1.3-41.7-17.6L129.9 236c-6.6-16.4 1.3-35 17.6-41.7l0 0c16.4-6.6 35 1.3 41.7 17.6L533.6 784.5z" p-id="9246" fill="#873bf4"></path><path d="M536 812.2c-6.9 16.3-25.7 23.9-41.9 17l0 0c-16.3-6.9-23.9-25.7-17-41.9l357.6-575.7c6.9-16.3 25.7-23.9 41.9-17l0 0c16.3 6.9 23.9 25.7 17 41.9L536 812.2z" p-id="9247" fill="#873bf4"></path><path d="M895.4 224c0 17.7-14.3 32-32 32l-704 0c-17.7 0-32-14.3-32-32l0 0c0-17.7 14.3-32 32-32l704 0C881 192 895.4 206.3 895.4 224L895.4 224z" p-id="9248" fill="#873bf4"></path><path d="M278.6 384l465 0 0 64-465 0 0-64Z" p-id="9249" fill="#873bf4"></path><path d="M391.6 576l232.5 0 0 64-232.5 0 0-64Z" p-id="9250" fill="#873bf4"></path></svg>