<?xml version="1.0" standalone="no"?><!DOCTYPE svg PUBLIC "-//W3C//DTD SVG 1.1//EN" "http://www.w3.org/Graphics/SVG/1.1/DTD/svg11.dtd"><svg t="1623675845323" class="icon" viewBox="0 0 1024 1024" version="1.1" xmlns="http://www.w3.org/2000/svg" p-id="8754" xmlns:xlink="http://www.w3.org/1999/xlink" width="280" height="280"><defs><style type="text/css"></style></defs><path d="M523 573.5c-3.9 0.7-7.9 1.1-12 1.1-5.3 0-10.4-0.6-15.2-1.8l-62.2 189.7 167.4-76L523 573.5z" p-id="8755" fill="#873bf4"></path><path d="M398.3 767.3l68.9-210.1c-6.4-6-11.5-13.3-15-21.4l-192.6 52.7L398.3 767.3z" p-id="8756" fill="#873bf4"></path><path d="M528 448.9c4.1 1.1 8 2.6 11.7 4.5l72.5-61.8L528 263.7 528 448.9z" p-id="8757" fill="#873bf4"></path><path d="M259.6 555.4 447.3 504c0.4-4.2 1.3-8.3 2.5-12.2L270.9 373.4 259.6 555.4z" p-id="8758" fill="#873bf4"></path><path d="M655.5 396.7l208.3 185.7 30.2 4.8c4.8-24.6 7.4-49.9 7.4-75.9 0-95.9-34.6-183.7-92-251.6L655.5 396.7z" p-id="8759" fill="#873bf4"></path><path d="M794.4 563.4 630.9 417.7l-67 57.1c5.6 8.3 9.3 18 10.6 28.4L794.4 563.4z" p-id="8760" fill="#873bf4"></path><path d="M496 448.4 496 239.6l-218.8 99.6 189.4 125.4C474.7 456.8 484.8 451.1 496 448.4z" p-id="8761" fill="#873bf4"></path><path d="M619.3 713.3 420 803.8l-19.1 81.6c35 10.3 72.1 15.9 110.4 15.9 74.4 0 143.9-20.8 203-56.9L619.3 713.3z" p-id="8762" fill="#873bf4"></path><path d="M648.7 699.5l92.3 127.2c63.3-46.2 112.2-111 138.6-186.4L648.7 699.5z" p-id="8763" fill="#873bf4"></path><path d="M386.2 804 226.1 597.7l-87.9 27.4c34.9 114.7 121.3 207 232.2 250L386.2 804z" p-id="8764" fill="#873bf4"></path><path d="M226.9 564.3 240.2 353l-64.4-40.5c-34.6 58.2-54.4 126.2-54.4 198.8 0 28.4 3 56.2 8.8 82.9L226.9 564.3z" p-id="8765" fill="#873bf4"></path><path d="M842.8 609.8l-272.7-74.7c-4 9.5-10.1 17.9-17.9 24.4l77.3 112.1L842.8 609.8z" p-id="8766" fill="#873bf4"></path><path d="M528 205.4l108.8 165.2 151-134.5c-67-67.3-158.4-110.2-259.7-114.5L528.1 205.4z" p-id="8767" fill="#873bf4"></path><path d="M245.7 318.4l250.3-114 0-82.8c-125 4.8-234.8 68.5-302.8 164L245.7 318.4z" p-id="8768" fill="#873bf4"></path></svg>