<?xml version="1.0" standalone="no"?><!DOCTYPE svg PUBLIC "-//W3C//DTD SVG 1.1//EN" "http://www.w3.org/Graphics/SVG/1.1/DTD/svg11.dtd"><svg t="1623675854252" class="icon" viewBox="0 0 1024 1024" version="1.1" xmlns="http://www.w3.org/2000/svg" p-id="9001" xmlns:xlink="http://www.w3.org/1999/xlink" width="280" height="280"><defs><style type="text/css"></style></defs><path d="M191 864c0 17.7-14.3 32-32 32l0 0c-17.7 0-32-14.3-32-32L127 160c0-17.7 14.3-32 32-32l0 0c17.7 0 32 14.3 32 32L191 864z" p-id="9002" fill="#873bf4"></path><path d="M159 896c-17.7 0-32-14.3-32-32l0 0c0-17.7 14.3-32 32-32l712 0c17.7 0 32 14.3 32 32l0 0c0 17.7-14.3 32-32 32L159 896z" p-id="9003" fill="#873bf4"></path><path d="M745.6 765.9" p-id="9004" fill="#873bf4"></path><path d="M307.6 244.3m-48 0a48 48 0 1 0 96 0 48 48 0 1 0-96 0Z" p-id="9005" fill="#873bf4"></path><path d="M560 479.2m-48 0a48 48 0 1 0 96 0 48 48 0 1 0-96 0Z" p-id="9006" fill="#873bf4"></path><path d="M391.9 387.7m-48 0a48 48 0 1 0 96 0 48 48 0 1 0-96 0Z" p-id="9007" fill="#873bf4"></path><path d="M540.4 244.3m-48 0a48 48 0 1 0 96 0 48 48 0 1 0-96 0Z" p-id="9008" fill="#873bf4"></path><path d="M732.9 292.3m-48 0a48 48 0 1 0 96 0 48 48 0 1 0-96 0Z" p-id="9009" fill="#873bf4"></path><path d="M792.9 717.9m-48 0a48 48 0 1 0 96 0 48 48 0 1 0-96 0Z" p-id="9010" fill="#873bf4"></path><path d="M307.6 527.2m-48 0a48 48 0 1 0 96 0 48 48 0 1 0-96 0Z" p-id="9011" fill="#873bf4"></path><path d="M439.9 662.4m-48 0a48 48 0 1 0 96 0 48 48 0 1 0-96 0Z" p-id="9012" fill="#873bf4"></path></svg>