<?xml version="1.0" standalone="no"?><!DOCTYPE svg PUBLIC "-//W3C//DTD SVG 1.1//EN" "http://www.w3.org/Graphics/SVG/1.1/DTD/svg11.dtd"><svg t="1623675675622" class="icon" viewBox="0 0 1024 1024" version="1.1" xmlns="http://www.w3.org/2000/svg" p-id="7333" xmlns:xlink="http://www.w3.org/1999/xlink" width="280" height="280"><defs><style type="text/css"></style></defs><path d="M663.006753 737.067221l63.49465 95.245298a381.686026 381.686026 0 0 1-289.466182 56.127169l23.339221-112.068156c17.92 3.716987 36.179117 5.585455 54.484779 5.585455a265.767896 265.767896 0 0 0 148.147532-44.883117zM515.324675 265.974026v89.054753h-0.465454v30.666805a126.025143 126.025143 0 0 1 91.588156 42.389611l32.960831-31.205403 0.445506 0.472104 56.32-53.367688A248.300052 248.300052 0 0 1 764.675325 515.324675c0 6.981818-0.478753 13.857247-1.050598 20.699429L674.942338 528.623377l0.039896-0.425559-37.316156-3.105247c-3.923117 38.100779-24.775481 71.174649-54.910338 91.581507l21.371013 32.063169 0.10639-0.066494 49.391376 74.087065A248.107221 248.107221 0 0 1 515.324675 764.675325c-17.088831 0-34.131117-1.748779-50.867532-5.219741l15.891948-76.301298-0.518649-0.099741 9.72135-46.705039a126.350961 126.350961 0 0 1-80.437195-51.013818l-27.508363 18.338909 0.372363 0.558546L307.884883 653.631169A248.107221 248.107221 0 0 1 265.974026 515.324675c0-3.510857 0.372364-6.915325 0.518649-10.366337l76.952935 3.204987 0.026598-0.438857 42.216727 1.755428c0.664935-33.885091 14.668468-64.498701 36.977039-86.813922L338.997195 338.997195A248.499532 248.499532 0 0 1 515.324675 265.974026zM378.507636 622.89787c20.293818 27.993766 51.731948 47.010909 86.893715 52.569766l-10.638961 67.224935c-54.697558-8.644156-103.596883-38.233766-135.161351-81.773714zM134.084156 498.987221l114.229195 4.767584c-0.152935 3.703688-0.558545 7.287688-0.558546 11.104416a265.767896 265.767896 0 0 0 44.896416 148.147532l-95.245299 63.49465a379.671273 379.671273 0 0 1-64.119688-211.642182c0-5.359377 0.591792-10.572468 0.797922-15.872zM512 445.506494c-36.724364 0-66.493506 29.769143-66.493506 66.493506s29.769143 66.493506 66.493506 66.493506 66.493506-29.769143 66.493506-66.493506-29.769143-66.493506-66.493506-66.493506z m279.618494-192.791273a379.877403 379.877403 0 0 1 104.813714 262.183896c0 10.685506-0.744727 21.19813-1.595844 31.670857l-114.003117-9.541818c0.61174-7.327584 1.13039-14.695065 1.130389-22.168935a265.974026 265.974026 0 0 0-73.375584-183.495481z m-259.69039 16.403948c55.375792-0.013299 108.304623 21.557195 146.285714 59.624727l-52.237299 46.764883c-24.416416-24.46961-58.447792-38.340156-94.048415-38.326857zM514.859221 133.286234V247.754805a266.186805 266.186805 0 0 0-188.881455 78.222961L245.048519 245.048519A380.396052 380.396052 0 0 1 514.859221 133.286234z" p-id="7334" fill="#873bf4"></path></svg>