<?xml version="1.0" standalone="no"?><!DOCTYPE svg PUBLIC "-//W3C//DTD SVG 1.1//EN" "http://www.w3.org/Graphics/SVG/1.1/DTD/svg11.dtd"><svg t="1623675710338" class="icon" viewBox="0 0 1024 1024" version="1.1" xmlns="http://www.w3.org/2000/svg" p-id="8047" xmlns:xlink="http://www.w3.org/1999/xlink" width="280" height="280"><defs><style type="text/css"></style></defs><path d="M131.072 156.16c0-17.92 14.336-31.744 31.744-31.744 17.92 0 31.744 14.336 31.744 31.744v712.192c0 17.92-14.336 31.744-31.744 31.744-17.92 0-31.744-14.336-31.744-31.744V156.16zM292.864 338.944c-17.408 0-31.744-14.336-31.744-31.744 0-17.408 14.336-31.744 31.744-31.744h245.248c17.408 0 31.744 14.336 31.744 31.744 0 17.408-14.336 31.744-31.744 31.744h-245.248zM292.864 490.496c-17.408 0-31.744-14.336-31.744-31.744 0-17.408 14.336-31.744 31.744-31.744H640c17.408 0 31.744 14.336 31.744 31.744 0 17.408-14.336 31.744-31.744 31.744h-347.136zM292.864 794.112c-17.408 0-31.744-14.336-31.744-31.744 0-17.408 14.336-31.744 31.744-31.744h499.712c17.408 0 31.744 14.336 31.744 31.744 0 17.408-14.336 31.744-31.744 31.744h-499.712zM292.864 642.56c-17.408 0-31.744-14.336-31.744-31.744 0-17.408 14.336-31.744 31.744-31.744h97.28c17.408 0 31.744 14.336 31.744 31.744 0 17.408-14.336 31.744-31.744 31.744h-97.28z" p-id="8048" fill="#873bf4"></path></svg>