<?xml version="1.0" standalone="no"?><!DOCTYPE svg PUBLIC "-//W3C//DTD SVG 1.1//EN" "http://www.w3.org/Graphics/SVG/1.1/DTD/svg11.dtd"><svg t="1623675893738" class="icon" viewBox="0 0 1024 1024" version="1.1" xmlns="http://www.w3.org/2000/svg" p-id="9719" xmlns:xlink="http://www.w3.org/1999/xlink" width="280" height="280"><defs><style type="text/css"></style></defs><path d="M245.477 459.15c-17.5 0-31.7-14.2-31.7-31.7s14.2-31.7 31.7-31.7h140.474c17.5 0 31.7 14.2 31.7 31.7s-14.2 31.7-31.7 31.7H245.477zM294.397 623.05c-17.5 0-31.7-14.2-31.7-31.7s14.2-31.7 31.7-31.7h91.554c17.5 0 31.7 14.2 31.7 31.7s-14.2 31.7-31.7 31.7h-91.554zM197.258 295.25c-17.5 0-31.7-14.2-31.7-31.7s14.2-31.7 31.7-31.7h188.793c17.5 0 31.7 14.2 31.7 31.7s-14.2 31.7-31.7 31.7H197.258zM153.239 786.95c-17.5 0-31.7-14.2-31.7-31.7s14.2-31.7 31.7-31.7h232.812c17.5 0 31.7 14.2 31.7 31.7s-14.2 31.7-31.7 31.7H153.239zM544.025 864.95c0 17.7-14.3 32-32 32s-32-14.3-32-32v-712c0-17.7 14.3-32 32-32s32 14.3 32 32v712zM638.049 461.15c-17.5 0-31.7-14.2-31.7-31.7s14.2-31.7 31.7-31.7h200.48c17.5 0 31.7 14.2 31.7 31.7s-14.2 31.7-31.7 31.7h-200.48zM638.049 625.05c-17.5 0-31.7-14.2-31.7-31.7s14.2-31.7 31.7-31.7h131.558c17.5 0 31.7 14.2 31.7 31.7s-14.2 31.7-31.7 31.7H638.049zM638.049 297.25c-17.5 0-31.7-14.2-31.7-31.7s14.2-31.7 31.7-31.7h258.8c17.5 0 31.7 14.2 31.7 31.7s-14.2 31.7-31.7 31.7h-258.8zM638.049 788.95c-17.5 0-31.7-14.2-31.7-31.7s14.2-31.7 31.7-31.7h282.817c17.5 0 31.7 14.2 31.7 31.7s-14.2 31.7-31.7 31.7H638.049z" fill="#873bf4" p-id="9720"></path></svg>