<?xml version="1.0" standalone="no"?><!DOCTYPE svg PUBLIC "-//W3C//DTD SVG 1.1//EN" "http://www.w3.org/Graphics/SVG/1.1/DTD/svg11.dtd"><svg t="1623675903322" class="icon" viewBox="0 0 1024 1024" version="1.1" xmlns="http://www.w3.org/2000/svg" p-id="9953" xmlns:xlink="http://www.w3.org/1999/xlink" width="280" height="280"><defs><style type="text/css"></style></defs><path d="M511.4 129.7c-212.1 0-384 171.9-384 384s171.9 384 384 384 384-171.9 384-384S723.4 129.7 511.4 129.7zM398.9 813.3c-32.8-12.3-63.1-29.9-89.7-51.6 19.3-32.5 82.5-136.5 144.8-218 20.5 38.6 40.5 72.6 58.1 96.3 3.1 4.2 6.1 8.3 9.1 12.3C475.6 718.3 424 782.7 398.9 813.3zM567.3 718c27.8 40.9 48.6 74 60.7 93.8-30.5 12-63.4 19.3-97.6 21.3C538.9 804.9 552.2 762.2 567.3 718zM235.6 676.2c-15.2-25.7-26.9-53.7-34.4-83.4 46-16.1 130.3-42.3 220.6-54.3C362.4 597.3 279.8 649.9 235.6 676.2zM534.2 532.5 534.2 532.5c18.7 0.8 37.1 2.7 55.2 5.5-5.7 12.4-12.7 25.7-20.7 39.5C556.6 562.9 544.9 547.8 534.2 532.5zM534.2 465.1c-5.3 0.2-10.7 0.3-16.1 0.2 58.1-76.9 112.2-189.3 134.7-238.7 18 8.9 35 19.4 50.9 31.3-16.9 42.4-49.9 125-80.4 199.3C593.7 461.1 563.5 464 534.2 465.1zM786.7 350.6c12.6 21.3 22.9 44.1 30.4 68.2-26.5 6.8-63.1 15.6-104.7 23.7C741.2 405.2 769.3 371.2 786.7 350.6zM546.2 195.6c-10.3 58.3-32 169.5-60 251.5C445.2 345.8 441 253.4 443.1 201c22-4.8 44.8-7.3 68.3-7.3C523.1 193.7 534.7 194.4 546.2 195.6zM320.3 257c18.6 43.8 50.4 117 85.2 190-71.4-20-139.2-52.2-181.4-74.3C246.6 326.9 279.7 287.2 320.3 257zM737.2 740.4c-30.9-24.9-82.9-69.2-132.9-122.7 6.6-16 13-30.5 19.2-42.9 4.3-8.5 9.4-17.6 15.2-27.2C711.6 565 775 593.3 815.3 614 799.4 662.2 772.4 705.3 737.2 740.4z" p-id="9954" fill="#873bf4"></path></svg>