<?xml version="1.0" standalone="no"?><!DOCTYPE svg PUBLIC "-//W3C//DTD SVG 1.1//EN" "http://www.w3.org/Graphics/SVG/1.1/DTD/svg11.dtd"><svg t="1623671312487" class="icon" viewBox="0 0 1024 1024" version="1.1" xmlns="http://www.w3.org/2000/svg" p-id="7709" xmlns:xlink="http://www.w3.org/1999/xlink" width="280" height="280"><defs><style type="text/css"></style></defs><path d="M752.128 980.992c-13.824 0-26.624-3.584-38.912-10.24L525.824 867.84c-4.608-2.56-9.728-2.56-14.336 0L324.096 970.752c-12.288 6.656-25.6 10.24-38.912 10.24-24.064 0-46.592-10.752-62.464-29.696-16.384-18.944-23.04-44.544-18.944-70.144l35.84-218.112c1.024-6.144-1.024-12.8-5.12-17.408l-152.064-153.6c-22.528-23.04-30.208-56.832-19.968-88.064 10.24-30.208 35.328-51.712 66.048-56.832l209.408-31.744c5.12-1.024 9.728-4.608 12.288-9.728l94.208-198.144c13.824-29.696 42.496-48.128 74.752-48.128 32.256 0 60.416 18.432 74.752 48.128l93.696 198.144c2.56 5.12 7.168 8.704 12.288 9.728l209.408 31.744c30.72 4.608 56.32 26.624 66.048 56.832 10.24 31.232 2.56 65.024-19.968 88.064L803.84 646.656c-4.096 4.096-6.144 10.752-5.12 17.408l35.84 218.112c4.096 25.088-2.56 50.688-18.944 70.144-16.384 17.92-39.424 28.672-63.488 28.672zM518.656 799.744a78.863 78.863 0 0 1 38.912 10.24L744.96 912.896c2.56 1.536 4.608 2.048 7.168 2.048 4.096 0 8.704-2.048 11.776-6.144 2.56-3.072 5.632-8.192 4.096-15.872l-35.84-218.112c-4.608-27.136 4.096-55.296 23.552-74.752L907.776 445.44c7.68-7.68 5.12-17.408 4.608-20.48-1.024-3.072-4.608-10.752-13.312-11.776L689.664 381.44c-27.136-4.096-50.688-21.504-62.464-47.104L533.504 135.68c-4.096-8.704-10.752-9.728-14.336-9.728-3.584 0-10.24 1.536-14.336 9.728l-94.208 198.144c-11.776 25.6-35.328 43.008-62.464 47.104l-209.408 31.744c-8.704 1.536-12.288 8.704-13.312 11.776-1.024 2.56-3.584 12.8 4.608 20.48L281.6 599.552c18.944 19.456 27.648 47.104 23.552 74.752l-35.84 218.112c-1.536 7.68 1.536 13.312 4.096 16.384 3.072 3.584 7.68 6.144 11.776 6.144 2.56 0 4.608-0.512 7.168-2.048l187.392-102.912c11.776-6.656 25.6-10.24 38.912-10.24z" p-id="7710" fill="#873bf4"></path></svg>