<?xml version="1.0" standalone="no"?><!DOCTYPE svg PUBLIC "-//W3C//DTD SVG 1.1//EN" "http://www.w3.org/Graphics/SVG/1.1/DTD/svg11.dtd"><svg t="1623670591145" class="icon" viewBox="0 0 1024 1024" version="1.1" xmlns="http://www.w3.org/2000/svg" p-id="7333" xmlns:xlink="http://www.w3.org/1999/xlink" width="280" height="280"><defs><style type="text/css"></style></defs><path d="M191 864c0 17.7-14.3 32-32 32l0 0c-17.7 0-32-14.3-32-32L127 160c0-17.7 14.3-32 32-32l0 0c17.7 0 32 14.3 32 32L191 864z" p-id="7334" fill="#873bf4"></path><path d="M159 896c-17.7 0-32-14.3-32-32l0 0c0-17.7 14.3-32 32-32l712 0c17.7 0 32 14.3 32 32l0 0c0 17.7-14.3 32-32 32L159 896z" p-id="7335" fill="#873bf4"></path><path d="M307.1 686.3c-12.4 12.4-32.4 12.4-44.8 0l0 0c-12.4-12.4-12.4-32.4 0-44.8l173.4-173.4c12.4-12.4 32.4-12.4 44.8 0l0 0c12.4 12.4 12.4 32.4 0 44.8L307.1 686.3z" p-id="7336" fill="#873bf4"></path><path d="M608.8 640c-12.4 12.4-32.4 12.4-44.8 0l0 0c-12.4-12.4-12.4-32.4 0-44.8l212.7-212.7c12.4-12.4 32.4-12.4 44.8 0l0 0c12.4 12.4 12.4 32.4 0 44.8L608.8 640z" p-id="7337" fill="#873bf4"></path><path d="M608 595.3c12.4 12.4 12.4 32.4 0 44.8l0 0c-12.4 12.4-32.4 12.4-44.8 0L436 512.8c-12.4-12.4-12.4-32.4 0-44.8l0 0c12.4-12.4 32.4-12.4 44.8 0L608 595.3z" p-id="7338" fill="#873bf4"></path></svg>