<?xml version="1.0" standalone="no"?><!DOCTYPE svg PUBLIC "-//W3C//DTD SVG 1.1//EN" "http://www.w3.org/Graphics/SVG/1.1/DTD/svg11.dtd"><svg t="1623675834681" class="icon" viewBox="0 0 1024 1024" version="1.1" xmlns="http://www.w3.org/2000/svg" p-id="8520" xmlns:xlink="http://www.w3.org/1999/xlink" width="280" height="280"><defs><style type="text/css"></style></defs><path d="M508.631579 121.263158c213.935158 0 387.368421 173.433263 387.368421 387.368421S722.566737 896 508.631579 896 121.263158 722.566737 121.263158 508.631579 294.696421 121.263158 508.631579 121.263158z m0 47.157895C320.741053 168.421053 168.421053 320.741053 168.421053 508.631579S320.741053 848.842105 508.631579 848.842105 848.842105 696.522105 848.842105 508.631579 696.522105 168.421053 508.631579 168.421053z m121.849263 329.835789c59.917474 0 123.560421 32.134737 174.753684 72.68379C776.232421 706.607158 654.457263 808.421053 508.631579 808.421053c-138.725053 0-255.683368-92.139789-291.712-217.909895 44.651789 25.566316 95.898947 38.346105 153.74821 38.346105 77.338947 0 110.268632-30.450526 138.273685-61.945263l2.573473-2.903579 3.826527-4.365474 3.408842-3.907368c26.098526-29.844211 51.961263-57.472 111.730526-57.472z" p-id="8521" fill="#873bf4"></path></svg>