<?xml version="1.0" standalone="no"?><!DOCTYPE svg PUBLIC "-//W3C//DTD SVG 1.1//EN" "http://www.w3.org/Graphics/SVG/1.1/DTD/svg11.dtd"><svg t="1623675693846" class="icon" viewBox="0 0 1024 1024" version="1.1" xmlns="http://www.w3.org/2000/svg" p-id="7811" xmlns:xlink="http://www.w3.org/1999/xlink" width="280" height="280"><defs><style type="text/css"></style></defs><path d="M489.7 511 489 511 489 126.9c-201 12.3-360.1 179.2-360.1 383.3 0 212.1 171.9 384 384 384 106.5 0 202.9-43.4 272.5-113.4L489.7 511z" p-id="7812" fill="#873bf4"></path><path d="M773.1 237.2l6-6c-62.7-59.6-143.5-95.8-228.2-104l0 304.7L773.1 237.2z" p-id="7813" fill="#873bf4"></path><path d="M819.5 281.6 564.1 505.1 822 739c3-4 5.9-8.1 8.7-12.3 41.4-61.3 65.6-135.2 65.6-214.7C896.3 425.6 867.7 345.8 819.5 281.6z" p-id="7814" fill="#873bf4"></path></svg>