<?xml version="1.0" standalone="no"?><!DOCTYPE svg PUBLIC "-//W3C//DTD SVG 1.1//EN" "http://www.w3.org/Graphics/SVG/1.1/DTD/svg11.dtd"><svg t="1623675687295" class="icon" viewBox="0 0 1024 1024" version="1.1" xmlns="http://www.w3.org/2000/svg" p-id="7567" xmlns:xlink="http://www.w3.org/1999/xlink" width="280" height="280"><defs><style type="text/css"></style></defs><path d="M597.5 433.3l282.1-210.3c-40-57.5-94.5-104.2-158.2-134.6L557.8 405.2C573 411.7 586.5 421.3 597.5 433.3z" p-id="7568" fill="#873bf4"></path><path d="M624.2 481.6l229.7-23.4c-3.4-50.5-19.9-99.6-48.1-142l-201.6 125C613.3 453.1 620.2 466.7 624.2 481.6z" p-id="7569" fill="#873bf4"></path><path d="M627.5 499.3c0.5 4.2 0.7 8.4 0.7 12.7 0 14.8-2.8 29-7.9 42.1l177.7 106.8c27.5-42.4 43.7-91.6 46.6-142.6L627.5 499.3z" p-id="7570" fill="#873bf4"></path><path d="M612.3 570.7c-10.3 17.6-25.1 32.2-42.8 42.3l62.8 108.1c34.7-18.6 64.3-46.1 85.4-79.8L612.3 570.7z" p-id="7571" fill="#873bf4"></path><path d="M512 628.2c-2 0-4-0.1-6-0.2l-0.8 92.8c28.5 1.2 57.1-5 82.7-18.2L549.5 622C537.7 626.1 525.1 628.2 512 628.2z" p-id="7572" fill="#873bf4"></path><path d="M441.8 604.7l-81.8 148.8c33.9 20.1 72.6 31.3 112.4 32l7.9-161.6C466.2 619.9 453.2 613.3 441.8 604.7z" p-id="7573" fill="#873bf4"></path><path d="M333.3 769.2l100.7-171c-14.9-13.5-26.3-30.7-32.6-50.3L229.5 661.8C255.2 705.3 290.8 742.1 333.3 769.2z" p-id="7574" fill="#873bf4"></path><path d="M176.1 697.2l-57.6 38.1C155.2 795 207 844.6 268.9 878.5l31.9-54.1C250 792.4 207.1 748.7 176.1 697.2z" p-id="7575" fill="#873bf4"></path><path d="M395.8 512c0-15.6 3.1-30.5 8.6-44.1l-85.7-1.6c-3.6 14.6-5.5 29.9-5.5 45.6 0 20.2 3.1 39.7 8.9 58l75.9-35.3C396.5 527.4 395.8 519.8 395.8 512z" p-id="7576" fill="#873bf4"></path><path d="M249.2 512c0-16 1.5-31.6 4.3-46.8l-178.7-3.3c-3.6 69.9 10.9 140.2 42.7 203.3l146.3-68C254.3 570.5 249.2 541.9 249.2 512z" p-id="7577" fill="#873bf4"></path><path d="M512 394.8c8.4 0 16.7 0.9 24.6 2.6l67.8-174.4c-36.2-15.5-76.1-21.4-115.6-16.9l15.7 189C507 394.9 509.5 394.8 512 394.8z" p-id="7578" fill="#873bf4"></path></svg>