<?xml version="1.0" standalone="no"?><!DOCTYPE svg PUBLIC "-//W3C//DTD SVG 1.1//EN" "http://www.w3.org/Graphics/SVG/1.1/DTD/svg11.dtd"><svg t="1623675721188" class="icon" viewBox="0 0 1024 1024" version="1.1" xmlns="http://www.w3.org/2000/svg" p-id="8281" xmlns:xlink="http://www.w3.org/1999/xlink" width="280" height="280"><defs><style type="text/css"></style></defs><path d="M330.105263 424.421053m33.684211 0l0 0q33.684211 0 33.68421 33.68421l0 188.631579q0 33.684211-33.68421 33.684211l0 0q-33.684211 0-33.684211-33.684211l0-188.631579q0-33.684211 33.684211-33.68421Z" p-id="8282" fill="#873bf4"></path><path d="M148.210526 289.684211m33.684211 0l0 0q33.684211 0 33.68421 33.68421l0 242.526316q0 33.684211-33.68421 33.68421l0 0q-33.684211 0-33.684211-33.68421l0-242.526316q0-33.684211 33.684211-33.68421Z" p-id="8283" fill="#873bf4"></path><path d="M512 289.684211m33.684211 0l0 0q33.684211 0 33.68421 33.68421l0 154.947368q0 33.684211-33.68421 33.684211l0 0q-33.684211 0-33.684211-33.684211l0-154.947368q0-33.684211 33.684211-33.68421Z" p-id="8284" fill="#873bf4"></path><path d="M693.894737 154.947368m33.68421 0l0 0q33.684211 0 33.684211 33.684211l0 215.578947q0 33.684211-33.684211 33.684211l0 0q-33.684211 0-33.68421-33.684211l0-215.578947q0-33.684211 33.68421-33.684211Z" p-id="8285" fill="#873bf4"></path><path d="M835.368421 121.263158m33.684211 0l0 0q33.684211 0 33.68421 33.68421l0 545.684211q0 33.684211-33.68421 33.68421l0 0q-33.684211 0-33.684211-33.68421l0-545.684211q0-33.684211 33.684211-33.68421Z" p-id="8286" fill="#873bf4"></path><path d="M159.002947 896a31.966316 31.966316 0 0 1-32-32 31.966316 31.966316 0 0 1 32-32h711.996632a31.966316 31.966316 0 0 1 32 32 31.966316 31.966316 0 0 1-32 32H159.002947z" p-id="8287" fill="#873bf4"></path></svg>